<svg width="16" height="16" viewBox="0 0 16 16" fill="none" xmlns="http://www.w3.org/2000/svg">
<g id="icons8:down-round">
<path id="Vector" d="M8.3198 1.57629C4.91378 1.57629 2.14258 4.34749 2.14258 7.75352C2.14258 11.1595 4.91378 13.9307 8.3198 13.9307C11.7258 13.9307 14.497 11.1595 14.497 7.75352C14.497 4.34749 11.7258 1.57629 8.3198 1.57629ZM8.3198 2.52664C11.2122 2.52664 13.5467 4.86115 13.5467 7.75352C13.5467 10.6459 11.2122 12.9804 8.3198 12.9804C5.42744 12.9804 3.09292 10.6459 3.09292 7.75352C3.09292 4.86115 5.42744 2.52664 8.3198 2.52664ZM7.84463 4.42732V9.31208L5.94395 7.4114L5.27586 8.09564L7.97816 10.7975L8.32028 11.1396L8.6624 10.7975L11.3642 8.09517L10.6957 7.4114L8.79498 9.31208V4.42732H7.84463Z" fill="#F8F8F8"/>
</g>
</svg>
