<svg width="12" height="12" viewBox="0 0 12 12" fill="none" xmlns="http://www.w3.org/2000/svg">
<g id="material-symbols:info-outline" clip-path="url(#clip0_31_62)">
<path id="Vector" d="M5.27117 8.5813H6.22151V5.73028H5.27117V8.5813ZM5.74634 4.77993C5.88097 4.77993 5.99391 4.73432 6.08514 4.64308C6.17637 4.55185 6.22183 4.43908 6.22151 4.30476C6.22151 4.17013 6.1759 4.0572 6.08466 3.96597C5.99343 3.87473 5.88066 3.82927 5.74634 3.82959C5.61171 3.82959 5.49878 3.87521 5.40754 3.96644C5.31631 4.05767 5.27085 4.17045 5.27117 4.30476C5.27117 4.43939 5.31679 4.55233 5.40802 4.64356C5.49925 4.73479 5.61203 4.78025 5.74634 4.77993ZM5.74634 10.9572C5.08902 10.9572 4.4713 10.8323 3.89317 10.5827C3.31505 10.3331 2.81216 9.99462 2.3845 9.56728C1.95685 9.13963 1.61837 8.63674 1.36906 8.05862C1.11976 7.48049 0.994946 6.86277 0.994629 6.20545C0.994629 5.54813 1.11944 4.93041 1.36906 4.35228C1.61869 3.77416 1.95717 3.27127 2.3845 2.84361C2.81216 2.41596 3.31505 2.07748 3.89317 1.82817C4.4713 1.57886 5.08902 1.45405 5.74634 1.45374C6.40366 1.45374 7.02138 1.57855 7.59951 1.82817C8.17763 2.07779 8.68052 2.41627 9.10818 2.84361C9.53583 3.27127 9.87447 3.77416 10.1241 4.35228C10.3737 4.93041 10.4984 5.54813 10.4981 6.20545C10.4981 6.86277 10.3732 7.48049 10.1236 8.05862C9.874 8.63674 9.53552 9.13963 9.10818 9.56728C8.68052 9.99494 8.17763 10.3336 7.59951 10.5832C7.02138 10.8328 6.40366 10.9575 5.74634 10.9572ZM5.74634 10.0068C6.80756 10.0068 7.70642 9.63856 8.44294 8.90204C9.17945 8.16553 9.54771 7.26666 9.54771 6.20545C9.54771 5.14423 9.17945 4.24537 8.44294 3.50885C7.70642 2.77234 6.80756 2.40408 5.74634 2.40408C4.68513 2.40408 3.78626 2.77234 3.04974 3.50885C2.31323 4.24537 1.94497 5.14423 1.94497 6.20545C1.94497 7.26666 2.31323 8.16553 3.04974 8.90204C3.78626 9.63856 4.68513 10.0068 5.74634 10.0068Z" fill="#808080"/>
</g>
<defs>
<clipPath id="clip0_31_62">
<rect width="11.4041" height="11.4041" fill="white" transform="translate(0.0444336 0.503418)"/>
</clipPath>
</defs>
</svg>
