<svg width="15" height="15" viewBox="0 0 15 15" fill="none" xmlns="http://www.w3.org/2000/svg">
<path id="Star 1" d="M2.42477 2.38229C2.10771 0.552941 4.23755 -0.683607 5.66903 0.498728L7.99346 2.4186C8.44351 2.79032 9.0335 2.94688 9.60864 2.8472L12.5791 2.33237C14.4085 2.01531 15.645 4.14515 14.4627 5.57663L12.5428 7.90106C12.1711 8.35111 12.0145 8.9411 12.1142 9.51624L12.6291 12.4867C12.9461 14.3161 10.8163 15.5526 9.3848 14.3703L7.06037 12.4504C6.61032 12.0787 6.02033 11.9221 5.44519 12.0218L2.47469 12.5367C0.645342 12.8537 -0.591206 10.7239 0.591129 9.2924L2.511 6.96797C2.88272 6.51792 3.03928 5.92793 2.9396 5.35279L2.42477 2.38229Z" fill="#B44201"/>
</svg>
