<svg width="16" height="16" viewBox="0 0 16 16" fill="none" xmlns="http://www.w3.org/2000/svg">
<g id="icons8:up-round">
<path id="Vector" d="M8.21385 1.57629C4.80782 1.57629 2.03662 4.34749 2.03662 7.75352C2.03662 11.1595 4.80782 13.9307 8.21385 13.9307C11.6199 13.9307 14.3911 11.1595 14.3911 7.75352C14.3911 4.34749 11.6199 1.57629 8.21385 1.57629ZM8.21385 2.52664C11.1062 2.52664 13.4407 4.86115 13.4407 7.75352C13.4407 10.6459 11.1062 12.9804 8.21385 12.9804C5.32148 12.9804 2.98696 10.6459 2.98696 7.75352C2.98696 4.86115 5.32148 2.52664 8.21385 2.52664ZM8.21385 4.36792L7.87172 4.71005L5.1699 7.41187L5.83799 8.09564L7.73868 6.19496V11.0797H8.68902V6.19496L10.5897 8.09564L11.2578 7.4114L8.5555 4.70957L8.21337 4.36745L8.21385 4.36792Z" fill="#FAFAFA"/>
</g>
</svg>
